<?xml version="1.0" encoding="utf-8" ?>
<svg baseProfile="full" height="500px" version="1.1" width="500px" xmlns="http://www.w3.org/2000/svg" xmlns:ev="http://www.w3.org/2001/xml-events" xmlns:xlink="http://www.w3.org/1999/xlink"><defs><clipPath id="border_clip"><rect height="500" width="500" x="0" y="0" /></clipPath></defs><polygon clip-path="url(#border_clip)" fill="#ff0000" fill-rule="evenodd" points="230.49999999999997,360.5 80.5,150.5 229.5,150.49999999999994 229.50000000000003,220.49999999999994" stroke-width="0" /><polygon clip-path="url(#border_clip)" fill="black" fill-rule="evenodd" points="270.5,360.5 270.4999999999999,150.5 420.4999999999999,150.4999999999999 270.5,360.5" stroke-width="0" /><polygon clip-path="url(#border_clip)" fill="black" fill-rule="evenodd" points="80.5,135.5 420.5,135.49999999999974 420.5,75.49999999999974 80.49999999999997,75.49999999999994 80.5,135.49999999999994" stroke-width="0" /><text clip-path="url(#border_clip)" fill="#ffffff" style="font-family: Times New Roman; font-size: 69.3; font-style: bold;" text-anchor="middle" x="259.5" y="116.59999999999985">SPFC</text><polyline clip-path="url(#border_clip)" fill="none" points="250.5,430.5 50.5,150.5 50.49999999999997,60.5 450.5,60.499999999999915 450.5,150.49999999999991 250.5,430.5" stroke="black" stroke-linecap="round" stroke-width="1" /><polyline clip-path="url(#border_clip)" fill="none" points="230.49999999999997,360.5 80.5,150.5 229.5,150.49999999999994 229.50000000000003,220.49999999999994" stroke="#ff0000" stroke-linecap="round" stroke-width="1" /><polyline clip-path="url(#border_clip)" fill="none" points="270.5,360.5 270.4999999999999,150.5 420.4999999999999,150.4999999999999 270.5,360.5" stroke="black" stroke-linecap="round" stroke-width="1" /><polyline clip-path="url(#border_clip)" fill="none" points="80.5,135.5 420.5,135.49999999999974 420.5,75.49999999999974 80.49999999999997,75.49999999999994 80.5,135.49999999999994" stroke="black" stroke-linecap="round" stroke-width="1" /></svg>